<?xml version="1.0" encoding="UTF-8"?>
<svg width="14px" height="14px" viewBox="0 0 14 14" version="1.1" xmlns="http://www.w3.org/2000/svg" xmlns:xlink="http://www.w3.org/1999/xlink">
    <title>i</title>
    <g id="Symbols" stroke="none" stroke-width="1" fill="none" fill-rule="evenodd">
        <g id="Footer" transform="translate(-1060.000000, -152.000000)" fill="#FFFFFF" fill-rule="nonzero">
            <path d="M1069.8906,165.95001 C1071.01249,165.896879 1072.00623,165.640623 1072.82498,164.818757 C1073.64371,164.000002 1073.89996,163.006261 1073.9562,161.884376 C1074.02185,160.728129 1074.02185,157.265643 1073.9562,156.109396 C1073.9031,154.987512 1073.64685,153.99377 1072.82498,153.175016 C1072.00623,152.356292 1071.01249,152.100037 1069.8906,152.043793 C1068.73435,151.97815 1065.26873,151.97815 1064.11248,152.043793 C1062.99374,152.096894 1062,152.353149 1061.17813,153.171903 C1060.35626,153.990657 1060.10312,154.984399 1060.04687,156.106283 C1059.98126,157.262531 1059.98126,160.728129 1060.04687,161.884376 C1060.10001,163.006261 1060.35626,164.000002 1061.17813,164.818757 C1062,165.637511 1062.99062,165.893736 1064.11248,165.95001 C1065.26873,166.015623 1068.73435,166.015623 1069.8906,165.95001 Z M1067.0031,164.737488 C1065.98436,164.737488 1063.79375,164.818757 1062.87499,164.456239 C1062.26251,164.212496 1061.79061,163.740634 1061.54376,163.125004 C1061.17813,162.203132 1061.26251,160.015637 1061.26251,158.996902 C1061.26251,157.978136 1061.18124,155.787528 1061.54376,154.868768 C1061.7875,154.256282 1062.25936,153.78439 1062.87499,153.537533 C1063.79687,153.171903 1065.98436,153.256284 1067.0031,153.256284 C1068.02186,153.256284 1070.21247,153.175016 1071.13123,153.537533 C1071.74372,153.781277 1072.21561,154.253138 1072.46246,154.868768 C1072.82809,155.790641 1072.74371,157.978136 1072.74371,158.996902 C1072.74371,160.015637 1072.82809,162.206244 1072.46246,163.125004 C1072.21872,163.737491 1071.74686,164.209383 1071.13123,164.456239 C1070.20936,164.821869 1068.02186,164.737488 1067.0031,164.737488 Z M1070.74061,156.096884 C1071.2031,156.096884 1071.5781,155.725028 1071.5781,155.259392 C1071.5781,154.796899 1071.2031,154.4219 1070.74061,154.4219 C1070.27811,154.4219 1069.90311,154.796899 1069.90311,155.259392 C1069.90311,155.721885 1070.27497,156.096884 1070.74061,156.096884 Z M1067.0031,162.5875 C1068.99061,162.5875 1070.59372,160.984385 1070.59372,158.996902 C1070.59372,157.009388 1068.99061,155.406273 1067.0031,155.406273 C1065.01561,155.406273 1063.4125,157.009388 1063.4125,158.996902 C1063.4125,160.984385 1065.01561,162.5875 1067.0031,162.5875 Z M1067.0031,161.331247 C1065.71874,161.331247 1064.66875,160.284374 1064.66875,158.996902 C1064.66875,157.709398 1065.71562,156.662526 1067.0031,156.662526 C1068.2906,156.662526 1069.33747,157.709398 1069.33747,158.996902 C1069.33747,160.284374 1068.28749,161.331247 1067.0031,161.331247 Z" id="i"></path>
        </g>
    </g>
</svg>