<?xml version="1.0" encoding="UTF-8"?>
<svg width="16px" height="14px" viewBox="0 0 16 14" version="1.1" xmlns="http://www.w3.org/2000/svg" xmlns:xlink="http://www.w3.org/1999/xlink">
    <title>t</title>
    <g id="Symbols" stroke="none" stroke-width="1" fill="none" fill-rule="evenodd">
        <g id="Footer" transform="translate(-1104.000000, -152.000000)" fill="#FFFFFF" fill-rule="nonzero">
            <path d="M1109.03551,165.497466 C1115.06598,165.497466 1118.36544,160.502544 1118.36544,156.167563 C1118.36544,156.025443 1118.36544,155.883261 1118.35528,155.741141 C1118.99487,155.274132 1119.55328,154.695459 1119.9999,154.045741 C1119.4111,154.299525 1118.77151,154.482294 1118.1116,154.553339 C1118.79177,154.147273 1119.30953,153.507687 1119.55322,152.746245 C1118.92373,153.121885 1118.2131,153.395993 1117.47201,153.538113 C1116.87299,152.898527 1116.02024,152.502593 1115.07605,152.502593 C1113.25883,152.502593 1111.79689,153.974666 1111.79689,155.78176 C1111.79689,156.035574 1111.82734,156.289358 1111.87809,156.53301 C1109.15734,156.390859 1106.73092,155.091393 1105.11673,153.10156 C1104.83243,153.588864 1104.67004,154.147243 1104.67004,154.756372 C1104.67004,155.893424 1105.24868,156.898487 1106.13192,157.487323 C1105.5939,157.467059 1105.08624,157.314777 1104.64972,157.071125 L1104.64972,157.111713 C1104.64972,158.705612 1105.77664,160.025372 1107.27917,160.329967 C1107.00509,160.401012 1106.71066,160.441631 1106.41625,160.441631 C1106.20303,160.441631 1106,160.421337 1105.79693,160.39088 C1106.21319,161.690377 1107.42132,162.634527 1108.86293,162.665014 C1107.73601,163.548252 1106.32482,164.066012 1104.79187,164.066012 C1104.51776,164.066012 1104.26398,164.055849 1104,164.025423 C1105.45178,164.959381 1107.17764,165.497466 1109.03551,165.497466 Z" id="t"></path>
        </g>
    </g>
</svg>