<?xml version="1.0" encoding="UTF-8"?>
<svg width="18px" height="12px" viewBox="0 0 18 12" version="1.1" xmlns="http://www.w3.org/2000/svg" xmlns:xlink="http://www.w3.org/1999/xlink">
    <title>y</title>
    <g id="Symbols" stroke="none" stroke-width="1" fill="none" fill-rule="evenodd">
        <g id="Footer" transform="translate(-1150.000000, -153.000000)" fill="#FFFFFF" fill-rule="nonzero">
            <path d="M1165.66781,164.641053 C1166.40209,164.443544 1166.9804,163.885714 1167.17669,163.146672 C1167.50784,161.902761 1167.53149,159.403982 1167.53318,159.053361 L1167.53318,158.970899 C1167.53149,158.620281 1167.50784,156.121529 1167.17669,154.877618 C1166.9804,154.138545 1166.40209,153.556485 1165.66781,153.358976 C1164.52173,153.049882 1160.40518,153.006953 1159.2838,153.00099 L1158.71616,153.00099 C1157.59479,153.006953 1153.47825,153.049882 1152.33215,153.358976 C1151.59787,153.556515 1151.01956,154.138545 1150.82327,154.877618 C1150.49212,156.121529 1150.46846,158.620281 1150.46677,158.970899 L1150.46677,159.053361 C1150.46846,159.403982 1150.49212,161.902761 1150.82327,163.146672 C1151.01956,163.885714 1151.59787,164.443544 1152.33215,164.641053 C1153.47825,164.950146 1157.59479,164.993076 1158.71616,164.999038 L1159.28379,164.999038 C1160.40517,164.993076 1164.5217,164.950146 1165.66781,164.641053 Z M1157.2545,161.549721 L1157.2545,156.474538 L1161.71509,159.012191 L1157.2545,161.549721 Z" id="y"></path>
        </g>
    </g>
</svg>